<svg xmlns="http://www.w3.org/2000/svg" width="24" height="24" viewBox="0 0 24 24">
    <g transform="translate(-1599.944 -282.05)">
        <circle data-name="Ellipse 2427" cx="11.782" cy="11.782" r="11.782" transform="translate(1600.162 282.352)" style="fill:#fef200"/>
        <path data-name="Path 20409" d="M1601.831 299.644a4.042 4.042 0 0 0 1.721-.171 2.664 2.664 0 0 0 1.349-1.617 2.539 2.539 0 0 0 1.9 1.781 2.421 2.421 0 0 0 2.807-1.7 2.5 2.5 0 0 0 4.768-.026 2.154 2.154 0 0 0 2.434 1.718 2.027 2.027 0 0 0 2.235-1.848s.322 2.078 3.012 1.856a9.479 9.479 0 0 1-5.2 5.1c-3.933 1.565-6.154 1.354-10.278-.225a10.534 10.534 0 0 1-4.748-4.868z" style="fill:#00adef"/>
        <path data-name="Path 20410" d="M1623 289.379a12.04 12.04 0 1 0 .943 4.671 11.952 11.952 0 0 0-.943-4.671zm-11.057 16.014a11.258 11.258 0 0 1-7.422-2.765c.089.006.179.01.27.01a2.635 2.635 0 0 0 1.7-.515 2.578 2.578 0 0 0 .64-.754c.021-.037.04-.075.059-.113l.059.113a2.581 2.581 0 0 0 .641.754 3.05 3.05 0 0 0 3.392 0 2.59 2.59 0 0 0 .64-.754c.019-.035.038-.071.056-.108.018.037.037.073.056.108a2.581 2.581 0 0 0 .641.754 3.05 3.05 0 0 0 3.392 0 2.593 2.593 0 0 0 .64-.754l.056-.107c.018.036.036.072.056.107a2.574 2.574 0 0 0 .64.754 2.635 2.635 0 0 0 1.7.515c.07 0 .14 0 .209-.006a11.256 11.256 0 0 1-7.424 2.761zm8.021-3.322a9.945 9.945 0 0 1-.234.226 3.219 3.219 0 0 1-.571.048 2.368 2.368 0 0 1-1.5-.444 2.235 2.235 0 0 1-.566-.65 4.7 4.7 0 0 1-.328-.838 4.607 4.607 0 0 1-.328.838 2.236 2.236 0 0 1-.566.65 2.749 2.749 0 0 1-3 0 2.22 2.22 0 0 1-.566-.65 4.607 4.607 0 0 1-.328-.838 4.607 4.607 0 0 1-.328.838 2.235 2.235 0 0 1-.566.65 2.751 2.751 0 0 1-3 0 2.232 2.232 0 0 1-.565-.65 4.607 4.607 0 0 1-.328-.838h-.007a4.537 4.537 0 0 1-.328.838 2.232 2.232 0 0 1-.565.65 2.371 2.371 0 0 1-1.5.444 3.163 3.163 0 0 1-.662-.066 13.987 13.987 0 0 1-.215-.208 11.391 11.391 0 0 1-1.791-2.323c.122.012.246.018.373.018a2.423 2.423 0 0 0 2.306-1.268c.02-.037.039-.075.058-.114.019.039.038.077.058.114a2.644 2.644 0 0 0 4.612 0 1.85 1.85 0 0 0 .055-.109c.018.037.036.074.056.109a2.643 2.643 0 0 0 4.611 0 1.83 1.83 0 0 0 .056-.108c.017.037.036.073.055.108a2.644 2.644 0 0 0 4.611 0c.02-.036.038-.072.056-.11.018.038.037.074.056.11a2.423 2.423 0 0 0 2.306 1.268c.12 0 .238-.005.354-.016a11.436 11.436 0 0 1-1.78 2.321zm1.969-2.638a3.219 3.219 0 0 1-.525.04 2.317 2.317 0 0 1-1.479-.444 2.235 2.235 0 0 1-.558-.649 4.681 4.681 0 0 1-.324-.839 4.756 4.756 0 0 1-.324.839 2.234 2.234 0 0 1-.558.649 2.685 2.685 0 0 1-2.958 0 2.232 2.232 0 0 1-.558-.649 4.6 4.6 0 0 1-.324-.839 4.747 4.747 0 0 1-.324.839 2.232 2.232 0 0 1-.558.649 2.685 2.685 0 0 1-2.958 0 2.234 2.234 0 0 1-.558-.649 4.6 4.6 0 0 1-.324-.839 4.6 4.6 0 0 1-.324.839 2.232 2.232 0 0 1-.558.649 2.685 2.685 0 0 1-2.958 0 2.234 2.234 0 0 1-.558-.649 4.681 4.681 0 0 1-.324-.839h-.006a4.609 4.609 0 0 1-.324.839 2.233 2.233 0 0 1-.558.649 2.315 2.315 0 0 1-1.479.444 3.116 3.116 0 0 1-.562-.047 11.343 11.343 0 1 1 19.983.007z" style="fill:#014171"/>
        <path data-name="Path 20411" d="M1618.473 296.3v-1.95h-1.033v-.745h-1.3v.745h-.384l-1.215-4.36h.411v-1.184h-.741l-.484-1.735h.238v-1.1h-.544l-.547-1.962V284h-1.835l-.549 1.969h-.546v1.1h.239l-.483 1.735h-.74v1.184h.41l-1.216 4.36h-.325v-.745h-1.3v.745h-1.1v1.952h1.1v7.726a11.047 11.047 0 0 0 1.3.6V296.3h3.945v9.1h.427v-9.1h3.939v8.3a11.113 11.113 0 0 0 1.3-.615V296.3zm-3.819-4.32-.078.034-2.069-.885 1.706-.73zm-.621.266-1.829.783v-1.566zm.036-2.251-1.865.8v-.8zm-1.865-1.184v-.4l.94.4zm1.256-1.113.248.889-1.163-.5zm-.116-.415-1.14.488v-.695h1.083zm-2.878.381.993.425-1.262.541zm-.761 2.73 1.716.735-2.068.885-.089-.038zm-1.1 3.961.492-1.765.26-.111 2.068.885-2.315.991zm3.176 0h-1.585l1.585-.678zm0-1.3-1.881-.8 1.881-.8zm0-2.235-1.918-.821h1.918zm0-2.005h-.917l.917-.393zm0-1.05-1.195-.512.048-.173h1.147zm-.841-1.783.431-1.546h1.182l.432 1.546zm1.268 8.377v-.656l1.533.656zm2.618 0-2.315-.991 2.069-.885.246.105.494 1.771z" style="fill:#010510"/>
    </g>
</svg>
