<svg xmlns="http://www.w3.org/2000/svg" width="135.556" height="40" viewBox="0 0 135.556 40">
    <defs>
        <style>
            .cls-3{fill:#014171}
        </style>
    </defs>
    <g id="logo_SEAOIL_horizontal_40px" transform="translate(-1100.362 -407.327)">
        <g id="Group_5453" data-name="Group 5453">
            <circle id="Ellipse_2429" data-name="Ellipse 2429" cx="19.637" cy="19.637" r="19.637" transform="translate(1100.725 407.831)" style="fill:#fef200"/>
            <path id="Path_20421" data-name="Path 20421" d="M1103.507 436.651a6.74 6.74 0 0 0 2.869-.285 4.448 4.448 0 0 0 2.247-2.7s.745 2.645 3.167 2.968a4.035 4.035 0 0 0 4.678-2.842 4.165 4.165 0 0 0 7.947-.043s.4 2.978 4.057 2.862 3.725-3.078 3.725-3.078.537 3.462 5.021 3.093a15.8 15.8 0 0 1-8.669 8.495c-6.556 2.609-10.257 2.256-17.13-.376 0 .005-4.5-1.757-7.912-8.094z" style="fill:#00adef"/>
            <path id="Path_20422" data-name="Path 20422" class="cls-3" d="M1138.79 419.542a20.063 20.063 0 1 0 1.572 7.785 19.935 19.935 0 0 0-1.572-7.785zm-18.428 26.69a18.763 18.763 0 0 1-12.369-4.608c.148.01.3.016.449.016a4.388 4.388 0 0 0 2.827-.859 4.3 4.3 0 0 0 1.067-1.255c.034-.061.067-.125.1-.189.032.064.064.128.1.189a4.28 4.28 0 0 0 1.067 1.255 5.08 5.08 0 0 0 5.653 0 4.294 4.294 0 0 0 1.067-1.255c.033-.059.064-.119.094-.18.03.061.061.121.094.18a4.294 4.294 0 0 0 1.067 1.255 5.08 5.08 0 0 0 5.653 0 4.28 4.28 0 0 0 1.067-1.255c.033-.058.064-.118.094-.179.029.061.06.121.093.179a4.294 4.294 0 0 0 1.067 1.255 4.388 4.388 0 0 0 2.827.859q.176 0 .348-.009a18.766 18.766 0 0 1-12.365 4.601zm13.368-5.537q-.192.192-.39.378a5.454 5.454 0 0 1-.951.079 3.946 3.946 0 0 1-2.5-.74 3.75 3.75 0 0 1-.943-1.083 7.791 7.791 0 0 1-.547-1.4 7.63 7.63 0 0 1-.547 1.4 3.73 3.73 0 0 1-.942 1.083 4.584 4.584 0 0 1-4.995 0 3.75 3.75 0 0 1-.943-1.083 7.791 7.791 0 0 1-.547-1.4 7.719 7.719 0 0 1-.547 1.4 3.721 3.721 0 0 1-.943 1.083 4.583 4.583 0 0 1-4.994 0 3.75 3.75 0 0 1-.943-1.083 7.719 7.719 0 0 1-.547-1.4h-.01a7.719 7.719 0 0 1-.547 1.4 3.735 3.735 0 0 1-.943 1.083 3.946 3.946 0 0 1-2.5.74 5.218 5.218 0 0 1-1.1-.11c-.121-.114-.24-.229-.357-.347a19.024 19.024 0 0 1-2.987-3.871c.2.02.411.03.623.03a4.038 4.038 0 0 0 3.843-2.114l.1-.189c.03.065.063.128.1.189a4.406 4.406 0 0 0 7.686 0 4.33 4.33 0 0 0 .092-.18c.03.061.06.122.093.18a4.406 4.406 0 0 0 7.686 0c.032-.058.062-.118.092-.179.029.061.059.121.091.179a4.406 4.406 0 0 0 7.687 0 3.44 3.44 0 0 0 .092-.182c.03.062.061.123.094.182a4.034 4.034 0 0 0 3.843 2.114q.3 0 .591-.027a19.031 19.031 0 0 1-2.99 3.873zm3.282-4.4a5.312 5.312 0 0 1-.875.068 3.857 3.857 0 0 1-2.464-.74 3.716 3.716 0 0 1-.931-1.083 7.836 7.836 0 0 1-.54-1.4 7.753 7.753 0 0 1-.54 1.4 3.711 3.711 0 0 1-.93 1.083 4.475 4.475 0 0 1-4.93 0 3.711 3.711 0 0 1-.93-1.083 7.763 7.763 0 0 1-.54-1.4 7.753 7.753 0 0 1-.54 1.4 3.711 3.711 0 0 1-.93 1.083 4.474 4.474 0 0 1-4.929 0 3.712 3.712 0 0 1-.931-1.083 7.763 7.763 0 0 1-.54-1.4 7.753 7.753 0 0 1-.54 1.4 3.711 3.711 0 0 1-.93 1.083 4.476 4.476 0 0 1-4.93 0 3.711 3.711 0 0 1-.93-1.083 7.753 7.753 0 0 1-.54-1.4h-.01a7.753 7.753 0 0 1-.54 1.4 3.711 3.711 0 0 1-.93 1.083 3.86 3.86 0 0 1-2.465.74 5.314 5.314 0 0 1-.938-.079 18.905 18.905 0 1 1 33.306.011z"/>
            <path id="Path_20423" data-name="Path 20423" d="M1131.243 431.07v-3.243h-1.721v-1.241h-2.162v1.241h-.639l-2.025-7.266h.684v-1.975h-1.235l-.806-2.89h.4v-1.83h-.907l-.912-3.271v-.019H1118.865v.008l-.915 3.282h-.909v1.83h.4l-.806 2.89h-1.233v1.975h.683l-2.026 7.266h-.543v-1.241h-2.161v1.241h-1.842v3.243h1.842v12.876a18.811 18.811 0 0 0 2.161 1V431.07h6.575v15.159h.291c.141 0 .281 0 .421-.005V431.07h6.565v13.83a18.719 18.719 0 0 0 2.162-1.024V431.07zm-6.364-7.2-.131.056-3.447-1.476 2.843-1.217zm-1.036.443-3.048 1.3v-2.609zm.061-3.752-3.109 1.331v-1.331zm-3.109-1.975v-.67l1.567.67zm2.094-1.854.413 1.482-1.939-.829zm-.193-.692-1.9.813V415.7h1.8zm-4.8.636 1.655.709-2.1.9zm-1.268 4.55 2.86 1.224-3.447 1.476-.149-.064zm-1.841 6.6.82-2.941.434-.186 3.447 1.475-3.858 1.652zm5.293 0h-2.641l2.641-1.13zm0-2.173-3.134-1.341 3.134-1.342zm0-3.725-3.2-1.368h3.2zm0-3.343h-1.527l1.527-.653zm0-1.749-1.991-.853.08-.288h1.911zm-1.4-2.971.719-2.578h1.97l.719 2.578zm2.113 13.961v-1.093l2.555 1.093zm4.364 0-3.858-1.652 3.447-1.475.411.176.823 2.951z" style="fill:#010510"/>
        </g>
        <g id="Group_5454" data-name="Group 5454">
            <path id="Path_20424" data-name="Path 20424" class="cls-3" d="M1146.123 432.149h5a2.153 2.153 0 0 0 2.22 1.666 3.362 3.362 0 0 0 1.7-.3.936.936 0 0 0 .6-.96 1.056 1.056 0 0 0-.589-.784 7.353 7.353 0 0 0-2.274-.738 12.35 12.35 0 0 1-4.93-1.939 4.889 4.889 0 0 1-.743-5.837 5.009 5.009 0 0 1 1.981-1.729 9.808 9.808 0 0 1 4.486-.863 7.806 7.806 0 0 1 4.611 1.317 5.3 5.3 0 0 1 2.011 3.753l-4.939-.015c-.123-.719-.715-1.414-2.122-1.4-1.34.008-1.669.537-1.669.885a.81.81 0 0 0 .291.684 3.581 3.581 0 0 0 1.639.753 26.273 26.273 0 0 1 4.518 1.348 4.892 4.892 0 0 1 2.039 1.6 4.1 4.1 0 0 1 .717 2.294 5.251 5.251 0 0 1-.755 2.907 4.916 4.916 0 0 1-2.271 1.9 10.176 10.176 0 0 1-3.987.84c-2.7 0-4.734-.739-5.774-1.785a5.214 5.214 0 0 1-1.76-3.597z"/>
            <path id="Path_20425" data-name="Path 20425" class="cls-3" d="M1163.086 421.043h13.044v3.741h-7.792v2.26h6.586v3.81h-6.586v2.482h8.03v3.725h-13.282z"/>
            <path id="Path_20426" data-name="Path 20426" class="cls-3" d="M1189.446 434.98h-5.185l-.608 2.081h-5.122l5.749-16.018h5.354l5.692 16.018h-5.251zm-.907-3.341-1.639-5.739-1.624 5.738z"/>
            <path id="Path_20427" data-name="Path 20427" class="cls-3" d="M1195.532 429.091A8.319 8.319 0 0 1 1197.8 423a8.15 8.15 0 0 1 6.008-2.329 7.847 7.847 0 0 1 8.473 8.333 9.471 9.471 0 0 1-1.068 4.581 7.434 7.434 0 0 1-2.792 2.809 9.135 9.135 0 0 1-4.473 1.113 10.12 10.12 0 0 1-4.47-1.031 6.578 6.578 0 0 1-2.783-2.734 9.311 9.311 0 0 1-1.163-4.651zm5.287.062a5.207 5.207 0 0 0 .935 3.427 2.9 2.9 0 0 0 4.4-.01 5.75 5.75 0 0 0 .931-3.675 5.344 5.344 0 0 0-.975-3.308 2.763 2.763 0 0 0-2.3-1.026 2.533 2.533 0 0 0-2.132 1.1 5.4 5.4 0 0 0-.859 3.492z"/>
            <path id="Path_20428" data-name="Path 20428" class="cls-3" d="M1214.83 421.043h5.252v16.018h-5.252z"/>
            <path id="Path_20429" data-name="Path 20429" class="cls-3" d="M1223.493 421.043h5.241v12.309h7.184v3.709h-12.425z"/>
        </g>
    </g>
</svg>
